<svg xmlns="http://www.w3.org/2000/svg" viewBox="0 0 32 32">
  <defs>
    <style>
      .bg { fill: #050505; }
      .block-cyan { fill: #00f0ff; }
      .block-purple { fill: #8338ec; }
      
      /* J Animation - appears first, clears, then S comes */
      @keyframes j-cycle {
        0%, 5% { opacity: 0; transform: translateY(-4px); }
        10%, 40% { opacity: 1; transform: translateY(0); }
        45%, 50% { opacity: 0; transform: translateY(0); }
        55%, 100% { opacity: 0; }
      }
      
      /* S Animation - appears after J clears */
      @keyframes s-cycle {
        0%, 50% { opacity: 0; transform: translateY(-4px); }
        55%, 90% { opacity: 1; transform: translateY(0); }
        95%, 100% { opacity: 0; transform: translateY(0); }
      }
      
      .letter-j { animation: j-cycle 4s ease-in-out infinite; }
      .letter-s { animation: s-cycle 4s ease-in-out infinite; }
      
      @media (prefers-reduced-motion: reduce) {
        .letter-j, .letter-s {
          animation: none;
          opacity: 1;
        }
        .letter-s { opacity: 0; }
      }
    </style>
  </defs>
  
  <!-- Background -->
  <rect class="bg" width="32" height="32"/>
  
  <!-- Letter J (made of blocks) -->
  <g class="letter-j">
    <!-- Vertical line of J -->
    <rect class="block-cyan" x="20" y="2" width="6" height="6"/>
    <rect class="block-cyan" x="20" y="8" width="6" height="6"/>
    <rect class="block-cyan" x="20" y="14" width="6" height="6"/>
    <rect class="block-cyan" x="20" y="20" width="6" height="6"/>
    <!-- Hook of J -->
    <rect class="block-cyan" x="14" y="20" width="6" height="6"/>
    <rect class="block-cyan" x="8" y="20" width="6" height="6"/>
  </g>
  
  <!-- Letter S (made of blocks) -->
  <g class="letter-s">
    <!-- Top bar of S -->
    <rect class="block-purple" x="8" y="2" width="6" height="6"/>
    <rect class="block-purple" x="14" y="2" width="6" height="6"/>
    <rect class="block-purple" x="20" y="2" width="6" height="6"/>
    <!-- Middle of S -->
    <rect class="block-purple" x="8" y="8" width="6" height="6"/>
    <rect class="block-purple" x="14" y="8" width="6" height="6"/>
    <rect class="block-purple" x="20" y="8" width="6" height="6"/>
    <!-- Bottom bar of S -->
    <rect class="block-purple" x="8" y="14" width="6" height="6"/>
    <rect class="block-purple" x="14" y="14" width="6" height="6"/>
    <rect class="block-purple" x="20" y="14" width="6" height="6"/>
    <!-- Lower part of S -->
    <rect class="block-purple" x="8" y="20" width="6" height="6"/>
    <rect class="block-purple" x="14" y="20" width="6" height="6"/>
  </g>
</svg>