<svg xmlns="http://www.w3.org/2000/svg" viewBox="0 0 32 32">
  <defs>
    <style>
      .bg { fill: #050505; }
      .letter-j { fill: #00f0ff; }
      .letter-s { fill: #8338ec; }
      
      @keyframes cycle {
        0%, 45% { opacity: 1; }
        50%, 95% { opacity: 0; }
        100% { opacity: 1; }
      }
      
      .j-group { animation: cycle 3s ease-in-out infinite; }
      .s-group { animation: cycle 3s ease-in-out infinite reverse; }
      
      @media (prefers-reduced-motion: reduce) {
        .j-group, .s-group { animation: none; }
        .j-group { opacity: 1; }
        .s-group { opacity: 0; }
      }
    </style>
  </defs>
  
  <rect class="bg" width="32" height="32"/>
  
  <!-- Letter J -->
  <g class="j-group">
    <!-- Vertical line -->
    <rect class="letter-j" x="20" y="4" width="6" height="5"/>
    <rect class="letter-j" x="20" y="9" width="6" height="5"/>
    <rect class="letter-j" x="20" y="14" width="6" height="5"/>
    <rect class="letter-j" x="20" y="19" width="6" height="5"/>
    <!-- Hook -->
    <rect class="letter-j" x="14" y="19" width="6" height="5"/>
    <rect class="letter-j" x="8" y="19" width="6" height="5"/>
  </g>
  
  <!-- Letter S -->
  <g class="s-group">
    <!-- Top curve -->
    <rect class="letter-s" x="6" y="4" width="6" height="5"/>
    <rect class="letter-s" x="12" y="4" width="6" height="5"/>
    <rect class="letter-s" x="18" y="4" width="6" height="5"/>
    <!-- Middle diagonal -->
    <rect class="letter-s" x="6" y="9" width="6" height="5"/>
    <rect class="letter-s" x="12" y="9" width="6" height="5"/>
    <rect class="letter-s" x="18" y="9" width="6" height="5"/>
    <!-- Bottom curve -->
    <rect class="letter-s" x="6" y="14" width="6" height="5"/>
    <rect class="letter-s" x="12" y="14" width="6" height="5"/>
    <rect class="letter-s" x="18" y="14" width="6" height="5"/>
    <!-- Extra bottom -->
    <rect class="letter-s" x="6" y="19" width="6" height="5"/>
  </g>
</svg>